<svg width="10" height="11" viewBox="0 0 10 11" fill="none" xmlns="http://www.w3.org/2000/svg">
<path d="M5.66667 5.24567L6.46071 4.45233C6.59421 4.32321 6.77309 4.25168 6.95881 4.25316C7.14454 4.25465 7.32225 4.32901 7.45368 4.46025C7.5851 4.59149 7.65972 4.7691 7.66146 4.95482C7.66321 5.14055 7.59194 5.31953 7.463 5.45321L5.45912 7.45709C5.39349 7.52309 5.31546 7.57547 5.22952 7.61122C5.14358 7.64696 5.05141 7.66536 4.95833 7.66536C4.86525 7.66536 4.77309 7.64696 4.68714 7.61122C4.6012 7.57547 4.52317 7.52309 4.45754 7.45709L2.45366 5.45321C2.3879 5.38735 2.33575 5.30919 2.30019 5.22317C2.26464 5.13716 2.24637 5.04499 2.24644 4.95192C2.24657 4.76395 2.32137 4.58374 2.45437 4.45092C2.58738 4.3181 2.7677 4.24356 2.95567 4.24369C3.14363 4.24382 3.32385 4.31862 3.45667 4.45163L4.25 5.24567V1.24996C4.25 1.0621 4.32463 0.88193 4.45746 0.749092C4.5903 0.616254 4.77047 0.541626 4.95833 0.541626C5.14619 0.541626 5.32636 0.616254 5.4592 0.749092C5.59204 0.88193 5.66667 1.0621 5.66667 1.24996V5.24567ZM0.708332 9.04163H9.20833C9.39619 9.04163 9.57635 9.11625 9.70925 9.24909C9.84205 9.38193 9.91665 9.5621 9.91665 9.74996C9.91665 9.93782 9.84205 10.118 9.70925 10.2508C9.57635 10.3837 9.39619 10.4583 9.20833 10.4583H0.708332C0.520472 10.4583 0.340305 10.3837 0.207466 10.2508C0.074628 10.118 0 9.93782 0 9.74996C0 9.5621 0.074628 9.38193 0.207466 9.24909C0.340305 9.11625 0.520472 9.04163 0.708332 9.04163Z" fill="white"/>
</svg>
