<svg width="16" height="11" viewBox="0 0 16 11" fill="none" xmlns="http://www.w3.org/2000/svg">
<path d="M15.309 9.45002V1.35C15.309 0.603004 14.706 0 13.959 0H1.35C0.603004 0 0 0.603004 0 1.35V9.45002C0 10.197 0.603004 10.8 1.35 10.8H13.959C14.706 10.8 15.309 10.197 15.309 9.45002ZM14.13 1.251C14.427 1.548 14.265 1.854 14.103 2.007L10.449 5.355L13.959 9.009C14.067 9.135 14.139 9.333 14.013 9.46802C13.896 9.61202 13.626 9.60302 13.509 9.51302L9.57598 6.156L7.64999 7.911L5.73299 6.156L1.8 9.51302C1.683 9.60302 1.413 9.61202 1.296 9.46802C1.17 9.333 1.242 9.135 1.35 9.009L4.85999 5.355L1.206 2.007C1.044 1.854 0.882004 1.548 1.179 1.251C1.476 0.954004 1.782 1.098 2.034 1.314L7.64999 5.85L13.275 1.314C13.527 1.098 13.833 0.954004 14.13 1.251Z" fill="white"/>
</svg>
